@startuml
  abstract Trade {}
  abstract AbstractCommand{}
  class TradeWithPlayer {}
  class TradeWithNonPlayerEntity {}
  class AcceptTrade {}
  class DenyTrade {}
  class BuyCard {}
  class MoveThieve {}
  class Build {}
  class ActiveCard {}
  class Ping {}
  class ActivateThieve {}
  class Win {}
  class SetResources{}
  class AddResources{}
  class AddCard{}
  class StartTurn{}
  class EndTurn{}
  class Login{}
  class LoginComplete{}
  class SetGame{}
  class SetPlayer{}
  
  interface Player{}
  
  interface Command{
  	+execute()
  	+getRecipients() : Player[]
  }
  
  Trade <|-left- TradeWithPlayer
  Trade <|-up- TradeWithNonPlayerEntity
  Trade <|-down- AcceptTrade
  Trade <|-right- DenyTrade
  
  Command <|-down- AbstractCommand
  Command <|-down- Login
  AbstractCommand <|-down- LoginComplete
  AbstractCommand <|-left- BuyCard
  AbstractCommand <|-left- MoveThieve
  AbstractCommand <|-right- Build
  AbstractCommand <|-right- ActiveCard
  AbstractCommand <|-up- SetGame
  AbstractCommand <|-up- Ping
  AbstractCommand <|-up- ActivateThieve
  AbstractCommand <|-up- AddResources
  AbstractCommand <|-down- AddCard
  AbstractCommand <|-down- Win
  AbstractCommand <|-down- SetResources
  AbstractCommand <|-down- SetPlayer
  AbstractCommand <|-- EndTurn
  AbstractCommand <|-- StartTurn
  AbstractCommand <|-- Trade
  
  AbstractCommand *-- "1-4" Player
@enduml
